<svg xmlns="http://www.w3.org/2000/svg" version="1.1" xmlns:xlink="http://www.w3.org/1999/xlink" xmlns:svgjs="http://svgjs.dev/svgjs" width="2000" height="1500" viewBox="0 0 2000 1500"><rect width="2000" height="1500" fill="#ffffff"></rect><g transform="matrix(0.4444444444444444,0,0,0.4444444444444444,555.5556208333335,250)"><svg viewBox="0 0 320 360" data-background-color="#ffffff" preserveAspectRatio="xMidYMid meet" height="2250" width="2000" xmlns="http://www.w3.org/2000/svg" xmlns:xlink="http://www.w3.org/1999/xlink"><g id="tight-bounds" transform="matrix(1,0,0,1,0.000023499999997511622,0)"><svg viewBox="0 0 320 360" height="360" width="320"><g><svg></svg></g><g><svg viewBox="0 0 320 360" height="360" width="320"><g><path transform="translate(-74.99272,-51.79039) scale(4.65793,4.65793)" d="M20.6 59.9l0.8 1-0.4-1.3c-0.1-0.6-0.8 0.1-0.4 0.3M21.5 59.3c0.3 0.5 0.6 1 0.6 1.5 0 0.7 0.6 1 1.1 1.2-0.7-0.8-1.1-3-1.7-2.7M59.9 16.9c1.7 0 3.3-0.2 5.1 0.2 4.4 1.1 8.1 3.3 10.6 6.4l7 11.2c0.3 2.8 0.9 5.9 0.8 9.3 0.7 0 0.6-1 1.4-1.2-0.8 2-1.2 4.5-1.4 7.4-0.5-1.6 0-4 0.1-5.3-0.7 1.1-1.1 0.3-1.1-0.2 0.1-0.8-0.3-0.7-0.6-1-1.1-1-1.8-2.1-2.6-3.8 0.5-1.3 0.6-3.2-1-4.2-0.5-0.3-1.1-0.8-1.4-1.6-0.4-1.1-1.1-2.4-0.9-4.1 0.1-0.5-1.5 1.1-2.4 0.4-3.9-2.7-7.8-5.8-12.5-8.4-2.5 0-4.3-0.9-5.2-2-0.8-1-0.2-2.3 1-2.4 0.7 0 1.5-0.2 2.1 0.2 0.1-0.4 0.5-0.9 1-0.9M50 14.6l0.2 0.1c1 0.2 1.5 1.6 2.6 1.1 0 0.7 0.1 1.4-0.1 1.9-0.3 0.8-1.2 0.8-1.9 0.8-6.7-0.4-10.6 2.4-14.7 4.8-1.1 0.7-2.3 1.2-3.2 2.1-4.3 4-9 7.7-10.1 15.1l-0.9 8.2c-0.1 0.9-1.1 1.8-0.9 2.9l0.7 4.9c-0.7-0.7-1.1 0.2-0.9 0.6 0.1 0.3 0.5 1.3 1.1 0.4 0.8 1.5 1.6 4.4 2.7 5.7 3.4 4 7.8 7.6 11.4 11.2 0.9-0.2 1.6-0.2 1.8-0.8 0.3 0.6-0.3 1.2-0.8 1.3 1.6 1 3.4 1.9 5.8 2.1 3.1 0.2 6 0.7 8.7 1.4 1.4-0.4 2.8-0.6 4.3-0.7 0.5 0 0.8-0.8 1.4-1l0.1-1c0.6 0.9 0.5-0.3 0.1-0.9 0.7 0.6 0.9 1.1 1.2 1.5 0-0.3 0.8-1.4 0.8-0.1l0.2-1.3c0.3-0.2 0.4 1.1 0.7 0.2 0.3-0.9 0.9-0.2 1.5-0.5-0.2 0.4-0.1 1.2 0.6 0.7l0.8-0.7c0.5 1.2 1.3 0.7 1.7 0.5 4.4-2.8 8.8-6.1 13-9.4l-0.1 1.3 0.5-1.6c0.5 0.5 0.9 0.1 1.1-0.2 0.6-1 1.4-2 2.7-2.9-1.6 4.3-3.5 7.7-5.9 10.5l-1 1.2c0 0.7-0.2 1.6-1 1.7-0.4 0.1-1.2-0.2-1.8 0.4-0.3 0.4 0.7 1.2-0.1 0.6-0.7-0.5-1.4 0-2.2 0.2-0.6 0.2 0.4 0.8 0.6 1.2 0.2 0.4 0.4 0.8 0.3 1.3l-1.1-1.2c-1.3 0.7-2.1 2-3.2 3-0.5 0.4-0.3 1.1-0.3 1.7-0.7 0-1.5-0.2-1.9 0.2-0.3 0.4-0.2 1-0.2 1.6-1-0.1-1.1-1.6-2-1.3-0.9 0.2-1.9 0.3-2.7 0.8 0.6 1.2-1 0.5-0.8 0.7-1.5-0.9-2.8-1.6-4.4-1-3.4-1.1-7.6-0.6-10.7-0.2 0-0.5 0.1-1-0.1-1.1-0.2 0.5-0.8 0.3-0.7 0.3-1.9-1.3-3.8-2.1-5.8-3.2-1.8 0.2-3.5-0.7-4-1.2-1.4-1.3-3-0.6-4.3-0.9-2.8-0.7-3.8-3.6-4.1-5.6-0.2-1-1-1.4-1.3-1.3-1.3-4.2-3.3-8-4.9-11.9-0.4-1-0.3-2-0.3-3.1 0.5 0.2 1 0.1 0.9-0.6-0.5-3.3-1.7-5.8-3-8.2 0.7-3.4 0.8-7.4 2.4-10.4 1.4-2.7 4-4.1 5.8-6.4 0.6-0.8 0.6-1.9 1.2-2.6 2-2 4-4.1 6.2-5.9 1-0.8 2.2 0 3.7-0.3 0.5-1.8 2.5-3.4 4.4-2.9 0.8 0.2 2.4-1.9 2.9-2.1 0.8-0.3 0.4 0.8 0.4 1.5 1.9-1.5 4.5-2.3 6.9-3.2" fill="#000000" fill-rule="nonzero" stroke="none" stroke-width="1" stroke-linecap="butt" stroke-linejoin="miter" stroke-miterlimit="10" stroke-dasharray="" stroke-dashoffset="0" font-family="none" font-weight="none" font-size="none" text-anchor="none" style="mix-blend-mode: normal" data-fill-palette-color="tertiary"></path></g><g transform="matrix(1,0,0,1,114.74796509760455,90)"><svg viewBox="0 0 90.5040698047909 180" height="180" width="90.5040698047909"><g><svg viewBox="0 0 90.5040698047909 180" height="180" width="90.5040698047909"><g><svg viewBox="0 0 131.7134831460674 261.9597882993446" height="180" width="90.5040698047909"><g transform="matrix(1,0,0,1,0,81.95978829934458)"><svg viewBox="0 0 131.7134831460674 180" height="180" width="131.7134831460674"><g id="textblocktransform"><svg viewBox="0 0 131.7134831460674 180" height="180" width="131.7134831460674" id="textblock"><g><svg viewBox="0 0 131.7134831460674 180" height="180" width="131.7134831460674"><g transform="matrix(1,0,0,1,0,0)"><svg width="131.7134831460674" viewBox="2.35 -35.3 26.049999999999997 35.599999999999994" height="180" data-palette-color="#ea9937"><path d="M15.35 0.3Q11.45 0.3 7.88-0.95 4.3-2.2 2.35-4.25L2.35-4.25 3.8-7.1Q5.7-5.2 8.85-4.03 12-2.85 15.35-2.85L15.35-2.85Q20.05-2.85 22.4-4.58 24.75-6.3 24.75-9.05L24.75-9.05Q24.75-11.15 23.48-12.4 22.2-13.65 20.35-14.33 18.5-15 15.2-15.8L15.2-15.8Q11.25-16.8 8.9-17.73 6.55-18.65 4.88-20.55 3.2-22.45 3.2-25.7L3.2-25.7Q3.2-28.35 4.6-30.53 6-32.7 8.9-34 11.8-35.3 16.1-35.3L16.1-35.3Q19.1-35.3 21.98-34.48 24.85-33.65 26.95-32.2L26.95-32.2 25.7-29.25Q23.5-30.7 21-31.43 18.5-32.15 16.1-32.15L16.1-32.15Q11.5-32.15 9.18-30.38 6.85-28.6 6.85-25.8L6.85-25.8Q6.85-23.7 8.13-22.43 9.4-21.15 11.33-20.48 13.25-19.8 16.5-19L16.5-19Q20.35-18.05 22.73-17.13 25.1-16.2 26.75-14.33 28.4-12.45 28.4-9.25L28.4-9.25Q28.4-6.6 26.98-4.42 25.55-2.25 22.6-0.98 19.65 0.3 15.35 0.3L15.35 0.3Z" opacity="1" transform="matrix(1,0,0,1,0,0)" fill="#000000" class="wordmark-text-0" data-fill-palette-color="primary" id="text-0"></path></svg></g></svg></g></svg></g></svg></g><g transform="matrix(1,0,0,1,25.157275280898872,0)"><svg viewBox="0 0 81.39893258426966 55.69346829934458" height="55.69346829934458" width="81.39893258426966"><g><svg xmlns="http://www.w3.org/2000/svg" xmlns:xlink="http://www.w3.org/1999/xlink" version="1.1" x="0" y="0" viewBox="25.158000000000005 94.538 461.68399999999997 315.88599999999997" style="enable-background:new 0 0 512 512;" xml:space="preserve" height="55.69346829934458" width="81.39893258426966" class="icon-icon-0" data-fill-palette-color="accent" id="icon-0"><g fill="#ea9937" data-fill-palette-color="accent"><g fill="#ea9937" data-fill-palette-color="accent"><path d="M393.432 238.869h-16.528l-0.828-2.902c-1.088-3.814-2.589-7.43-4.46-10.742l-1.495-2.646 11.712-11.711c0.438-0.439 0.503-0.961 0.503-1.234-0.001-0.268-0.065-0.781-0.494-1.207l-12.759-12.76c-0.436-0.438-0.95-0.502-1.22-0.502-0.272 0-0.794 0.066-1.231 0.504l-11.712 11.709-2.646-1.494c-3.314-1.871-6.929-3.373-10.743-4.459l-2.903-0.828v-16.529c0-0.943-0.795-1.738-1.736-1.738h-18.029c-0.958 0-1.738 0.779-1.738 1.738v16.529l-2.903 0.828c-3.809 1.086-7.423 2.586-10.742 4.459l-2.646 1.494-11.711-11.711c-0.438-0.436-0.957-0.502-1.228-0.502-0.273 0-0.8 0.066-1.246 0.512l-12.741 12.74c-0.662 0.662-0.658 1.789 0.009 2.459l11.69 11.689-1.471 2.641c-1.914 3.434-3.412 7.049-4.453 10.748l-0.821 2.916h-16.541c-0.942 0-1.737 0.797-1.737 1.738v18.029c0 0.959 0.779 1.738 1.737 1.738h16.542l0.82 2.916c1.041 3.699 2.539 7.316 4.453 10.75l1.471 2.639-11.699 11.699c-0.656 0.662-0.652 1.801 0.018 2.48l12.73 12.717c0.439 0.438 0.966 0.504 1.239 0.504 0.271 0 0.79-0.064 1.227-0.502l11.7-11.682 2.637 1.469c3.439 1.914 7.055 3.412 10.749 4.451l2.917 0.82v16.541c0 0.959 0.78 1.738 1.738 1.738h18.029c0.941 0 1.736-0.797 1.736-1.738v-16.541l2.917-0.82c3.699-1.041 7.316-2.539 10.749-4.451l2.637-1.471 11.699 11.682c0.439 0.439 0.961 0.504 1.233 0.504 0.27 0 0.784-0.064 1.21-0.492l12.761-12.748c0.673-0.676 0.677-1.783-0.001-2.461l-11.712-11.711 1.495-2.646c1.871-3.314 3.372-6.93 4.46-10.744l0.828-2.902h16.528c0.958 0 1.738-0.779 1.738-1.738v-18.029C395.17 239.666 394.374 238.869 393.432 238.869zM327.869 276.564c-14.852 0-26.936-12.082-26.936-26.936 0-14.859 12.084-26.949 26.936-26.949 14.859 0 26.949 12.09 26.949 26.949C354.818 264.482 342.729 276.564 327.869 276.564z" fill="#000000" data-fill-palette-color="accent"></path><path d="M199.985 148.885h135.679c-0.04-0.227-0.07-0.459-0.07-0.697 0-2.641-0.491-32.373-0.834-35.404-2.361-10.574-11.911-18.246-22.746-18.246H48.459c-12.848 0-23.301 10.459-23.301 23.314V256.35c0 12.857 10.453 23.316 23.301 23.316h33.8c1.222 0 2.376 0.559 3.135 1.516 0.758 0.957 1.038 2.209 0.759 3.398l-14.906 63.494 84.133-67.527c0.71-0.57 1.593-0.881 2.504-0.881h10.8v-99.467C168.685 162.932 182.726 148.885 199.985 148.885z" fill="#000000" data-fill-palette-color="accent"></path><path d="M327.869 230.68c-10.44 0-18.935 8.502-18.935 18.949 0 10.441 8.494 18.936 18.935 18.936 10.448 0 18.949-8.494 18.949-18.936C346.818 239.182 338.317 230.68 327.869 230.68z" fill="#000000" data-fill-palette-color="accent"></path><path d="M463.541 156.885H199.985c-12.848 0-23.3 10.459-23.3 23.314v138.498c0 12.85 10.453 23.303 23.3 23.303h154.132c0.91 0 1.794 0.311 2.504 0.881l84.134 67.543-14.896-63.512c-0.278-1.189 0.001-2.439 0.76-3.396s1.913-1.516 3.135-1.516h33.787c12.848 0 23.301-10.453 23.301-23.303V180.199C486.842 167.344 476.389 156.885 463.541 156.885zM403.17 258.637c0 5.369-4.368 9.738-9.738 9.738H382.86c-0.81 2.371-1.762 4.668-2.849 6.871l7.477 7.477c3.788 3.785 3.792 9.963 0.008 13.768l-12.759 12.746c-1.818 1.83-4.264 2.844-6.875 2.844-2.606 0-5.053-1.01-6.888-2.844l-7.481-7.471c-2.237 1.1-4.532 2.051-6.866 2.846v10.566c0 5.369-4.368 9.738-9.736 9.738h-18.029c-5.37 0-9.738-4.369-9.738-9.738v-10.566c-2.332-0.795-4.627-1.746-6.863-2.846l-7.484 7.473c-1.833 1.832-4.277 2.842-6.882 2.842-2.601 0-5.046-1.008-6.886-2.836L268.251 296.5c-3.772-3.818-3.769-9.988-0.011-13.77l7.492-7.492c-1.099-2.236-2.05-4.531-2.845-6.863h-10.568c-5.369 0-9.737-4.369-9.737-9.738v-18.029c0-5.369 4.368-9.738 9.737-9.738h10.568c0.795-2.332 1.747-4.627 2.845-6.861l-7.482-7.484c-3.787-3.811-3.783-9.98 0-13.764l12.749-12.75c1.849-1.838 4.294-2.846 6.895-2.846 2.604 0 5.049 1.012 6.884 2.846l7.477 7.477c2.204-1.088 4.5-2.039 6.869-2.848v-10.572c0-5.371 4.368-9.738 9.738-9.738h18.029c5.368 0 9.736 4.367 9.736 9.738v10.572c2.371 0.809 4.668 1.76 6.871 2.848l7.477-7.477c1.835-1.834 4.281-2.846 6.888-2.846 2.611 0 5.057 1.014 6.886 2.855l12.74 12.74c1.828 1.814 2.843 4.256 2.846 6.863 0.004 2.611-1.007 5.063-2.847 6.902L380.012 224c1.087 2.203 2.039 4.498 2.849 6.869h10.571c5.37 0 9.738 4.369 9.738 9.738V258.637z" fill="#000000" data-fill-palette-color="accent"></path></g></g></svg></g></svg></g><g></g></svg></g></svg></g></svg></g></svg></g><defs></defs></svg><rect width="320" height="360" fill="none" stroke="none" visibility="hidden"></rect></g></svg></g></svg>